<svg id="Layer_1" data-name="Layer 1" xmlns="http://www.w3.org/2000/svg" viewBox="0 0 619.87 840.94"><defs><style>.cls-1{fill:#8b322c;stroke:#000;stroke-miterlimit:10;stroke-width:5px;}</style></defs><title>DongTienMap</title><path class="cls-1" d="M189,85.8,291.1,8.2,408.5,18.4l6.6-14.8,71,43.4,28.6,44.4,47.5,5.1s51.1,83.2,51.1,84.8v36.8l-20.4,10.2L617.4,357l-6.6,145.5-1.5,87.3L526.5,693l27.6,24.5-24,77.6-40.9-9.2-42.9,37.3-56.7-43.9-64,59.8,19.1-26.6-4.6-14.8,22.5-18.4L319.2,636.8l-65.4,23.5-6.6,4.1-51.1-13.8-121,14.8L72,633.7,13.8,603.1l-8.2-73-3-108.8,37.3-4.6-1-93.5,50.5-27.5,8.2,10.7,60.8-57.2,3.1-52.1,64.4-41.4-6.6-41.9Z" transform="translate(-0.04 0.02)"/></svg>