<svg id="Layer_1" data-name="Layer 1" xmlns="http://www.w3.org/2000/svg" viewBox="0 0 718.81 960.17"><defs><style>.cls-1{fill:#c5705d;stroke:#000;stroke-miterlimit:10;stroke-width:5px;}</style></defs><title>DongSonMap</title><path class="cls-1" d="M28,87.4H49.6L52,82.8l36.4,6.3,4.9,5.6-6.1,17.9,11.5,3.2,11.8-2.2,6.3,4.6s2.7-4.1,2.7-3.2,19.6,1.2,19.6,1.2l1.4-11.7h4.6l8,2.7,5.3,12.1s-2.6,23.3-2.6,23.8,27.6,8,27.6,8l18.2,5.3h1.5l10.9-3.2,3.9-.5,5.1,1,3.1,1.9,2.2-4.3v-.9l18.6,5.9,5.1,10.1,2.9-16-2-2.2-2.4-2.6,12.3-34,13.6-.9,10.9-15.5L275.7,75.8l5.1-6.3-4.6-6.8,8-9.7L274,30.6l7-9.2,4.3-6.6,11.5-9.5,36.8,16,3.9-7.7s1.9-8.2,2.7-8.3,7.2-2.4,7.2-2.4,48.8,41,49.7,41h8.2l5.3-2.7,7.5-5.3s2.4-3.4,3.9-2.7,6.6-.3,6.6-.3L432,68.8l35.1,3.8,2-5.1,22.5,13.8s7.5,14.3,8,13.8,15,1.5,15,1.5l14.5,24.8v12.4l-5.5,2.7,7.1,38.7-2,70.5h14.6l28.8,14.5-2,12.3,59.4,39-1.3,2.8-1.4,1.4-34,.9-5.8-5.4-7.7.3-3.9,15.3,11.4,7-3.6,4.1-7.3-3.1-2.4,4.5-5.3-1.4-9.5,16.9,4.1,6.1-9.5,19.4-3.1,6.6,3.2,6,11.8,11.6,1.7,1,16,1,9.2,33.5-2,53.3,3.2,12.4-.7,23H596L591.6,543l-9.5,1.5-3.6,5.5,28.9,17.2,5.5,28.6,1.4,2.7,12.3,8.5,49.9,7.2,16.7,10.4s8.3-1.9,8.3-2.5-1.4,38.8-1.4,38.8L710.5,672l-5.1,7.7,10.7,19.4-2.5,23.7-2.5,22.5-6.5,16s-5.8-1.4-5.8,0-3.6,37.8-3.6,37.8H682.8l-7.2-15.7H668l2.2,5.1-10.7,15.2-7.3,5.5-9.2-6.3-3.7,4.9,6.1,7.3-1.2,8.7-17.4,5.8-5.3,8.7-10.4-10.4-1,6.6L603.5,850l.8,15.7H590.9l9.4,14.5-4.8,4.9-8-12.6-2,9.4-16.3,4.6-1.7-10.4-11.4-6.3-1.3,5.4-24.2,11.2-18.2,17.5-80.6,1.4-2.9,9.5,15.8,7.3-3.2,5.5-29.6,2-9.2,1.5-11.2,3.6-8.7,5.5-1,15.7-43-26.9-1-14.1-8.2-11.6-4.1-5.5.2-11.4-11.4-15.5-30.1-9.5,1-28.8,16-12.3,11.6-18.4,32.7-18.2-4.9-5.5,23-22.6-1-3.1-9.4-14.6,10.4-6.1,8.5-56,52.7-39.1-10.9-13.8-15.5,5.8-9.9-6.5-14.1-15.5,1.7-10.7-23.2-19.5-1.4-8.2-7-1.5-7.5,7.5-14.1-2.4,2.9-11.7-8.7-10-15.8-42.7-13.8,2L267.6,526l-16.3-9-69.4,7.8-11.6-13.4L154,513.6l-2.2-14.3H138.7l-1-5.1v-2l6.1-4.6-4.6-13.8-16.4-1.5-1.7,1.7-1,10-5.1-6.5L104.3,476l-10.7-.3L106.9,455s11.2-3.8,11.2-4.3,6.5-26.7,6.5-26.7l-17.2-23.3L91,378.1,80.6,349.7l-1.2-6.5,1.7-5.3-8.7-11.4,21.8,4.3,12.5-5.8-7-22-16.3-9.7L79,303.9l-10.9,1.4.2-14.5-17.4-.3,2-9.2-7.7-4.1-2.7-8-8.5-2-6.1-12.8L3,245.6l6.3-19.1L5.6,214.1l2-25.7L17,168l13.3,2.2L35.4,160,12.2,138.2l9.7-14.1L17,106.2l2.7-6.6,2.4-6.3Z" transform="translate(0.14 -0.07)"/></svg>