<svg id="Layer_1" data-name="Layer 1" xmlns="http://www.w3.org/2000/svg" viewBox="0 0 784.71 666.11"><defs><style>.cls-1{fill:#b2373d;stroke:#000;stroke-width:5px;}</style></defs><title>ThanhHoaMap</title><path class="cls-1" d="M70.6,57.3,74.3,46V35.5l5.8-4.1h28.6l3.4-3.4,4.4-12.6s13.6,8.2,14,9.9,8.1,9.5,8.1,9.5v4.1l4.4.7,14.3-5.8,1.7,5.1V48l6.8,6.1,5.8-1,2-6.8,5.5-.3,11.6,1,3.1-2.7,2-17,10.5-5.1,8.5-8.8L224,7.6l11.2-2.4L241,2.8l22.1,13,5.5,3.7L266,47.4l17.7-2.7,6.1,3.4s4.4,6.8,6.1,6.8,11.9,2.4,11.9,2.4l3.4-6.5,4.4-1L334,51.2l9.7,7.8,7.7,6.5h6.1v5.8l6.8,6.5L381,76.1l10.5,10.2,2.7,4.4,3.4,6.8h5.8l2.4,7.1v9.9l2.7,3.8s7.2.7,8.2,0,4.1,6.5,4.1,6.5l42.8,20.1,5.5,3.4s3.1,1.4,4.1,0,4.8-6.8,4.8-6.8v-4.1l9.2,1.7v4.8l13.6.3,2.7,4.7H539v22.5a2.11,2.11,0,0,0,2.2,2h.1c2.4,0,19.4-2,19.4-2l-2,2s10.9,5.4,10.9,4.4-2,8.2-2,8.2h8.5l7.8,7.8,17,17.4,12.9,14.6,15.7,11.9,20.8,9.5,28.6,15,17,7.1s10.5,5.1,11.9,6.1,6.5,4.4,7.2,6.8,7.2,8.5,7.2,8.5l21.1-2.4,2.4,6.5h35.1l-9.9,19.1-12.9,17-23.8,19.4-8.8,10.2,1.7,13.3s6.5,5.8,5.8,7.1-10.6,10.5-10.6,10.5l-4.4,7.6-.3,14-20.1,13.3-8.2,3.8s-1.4,7.1,0,7.8,9.9,0,9.9,0l10.9-4.8,1.4,5.1-6.8,14-1.4,1.7H687.6l-1.4,9.2L679,476s-5.5,9.5-6.5,10.9-5.1,15.7-5.1,15.7v5.1L653.8,509l-2.7,7.1,3.7,11.2,4.8-7.8s4.8-.7,5.1.7,3.4,13.3,3.4,13.3L665,555.6v11.9l-1,17.7v12.3h-7.5l-2,5.4L650,607l-9.3-2.7,2,9.5s6.5,1.7,7.5,2,3.1,10.2,3.1,10.2l.7,9.9,6.5,8.2v5.1l-8.2-4.8.3,8.2,4.4,5.8,1.4,3.1-7.8,2-11.9-4.7-12.3-10.2-6.1,5.8L606,657.8l-10.2-8.5-.3-10.9-8.9-10.9-5.8-6.5-9.5,1.4-14.3.3-7.5-7.2-6.1-16-1-11.9-6.8-6.5h-18l-4.1,6.5-16.8-.6s-7.8.3-8.5-1a19.94,19.94,0,0,0-3.4-3.7l-4.4-1.4-6.5,2.4-.3,7.8-3.7-1-4.8-10.2-6.5-10.5-2.7-11.9,2-8.2-3.1-9.9-5.1,1-3.7,3.4-6.5,12.3-10.9,12.6-3.1,6.2L414.6,567l-6.5-15.7,3.4-16.3,4.8-9.9,2-10.6-5.4-15v-8.8l-11.6-3.4-6.5,3.1-3.8,3.8-5.5-9.9-11.6-6.1-7.1,2-2.7-19.4-2.4-6.8-8.5-5.1V428l-5.4-1.7-1.4-21.4,8.9-1,.7-11.2h13.6s3.4,2.4,3.4-.7-4.1-25.9-4.1-25.9.3-4.1-.7-4.1-20.1-.3-20.1-.3l-2.4-4.8-6.1-5.8-14.3,1.4-8.2,7.8-6.1.3v-9.2L294,348l-6.1-3.1L279,334.7l-10.2-5.1-14.3-1h-5.1l7.8-12.9,10.2-8.2,11.9-9.9,4.4-11.2,4.4-10.6-13.6-2.4L264,267l-8.5-9.5-1.4-9.2-9.9,2-7.8,4.5-12.9-1-17.7-11.6L194.9,234l-8.2-5.8-6.8-1.7h-13l-17.7-3.4-7.8-6.1-2.4-3.4-24.9-3.4-4.4-14.3,5.8-20.4-2.8-12.3,1.7-10.6s18-11.2,19.4-10.6,11.2-6.5,11.2-6.5l17.7-.7-12.3-12.3-11.2-16.7-5.8-11.6-10-2.2-8.5,4.4-5.4,1.7-1.7,6.8v14.6l-10.2,1-19.1-3.4-5.4,2.7-15,14-13.2,5.4L39.8,143l-8.2-6.1-5.4.3-8.5,1.7V118.8l-9.2-8.1s-5.8-8.2-5.8-9.2,1.7-4.8,1.7-4.8L16,92.2l5.8-2.4L30,79.9h8.2l8.9-3.4L52.2,70,59,66.9l8.2-2.7Z" transform="translate(-0.2 -0.01)"/></svg>